<svg width="39" height="55" viewBox="0 0 39 55" fill="none" xmlns="http://www.w3.org/2000/svg">
<g clip-path="url(#clip0)">
<path d="M15.4609 27.5376C15.4609 34.1954 15.5151 40.8532 15.4392 47.5095C15.3985 51.0772 12.9858 54.0324 9.78527 54.7674C5.98798 55.6401 2.51211 54.1811 0.921317 50.8006C0.35308 49.5921 0.0723516 48.1303 0.0655707 46.7814C-0.00223802 33.9311 -0.0225806 21.0808 0.028954 8.23189C0.0506528 3.33319 3.35701 -0.0624448 7.77678 0.00087074C12.3295 0.0655627 15.4337 3.34971 15.4676 8.26217C15.511 14.6873 15.4785 21.1125 15.4785 27.5376C15.4731 27.5376 15.4663 27.5376 15.4609 27.5376Z" fill="white"/>
<path d="M38.9867 27.5961C38.984 33.9342 39.0044 40.271 38.9786 46.6092C38.9582 51.5743 35.7206 55.0261 31.164 55.0151C26.6047 55.0041 23.3996 51.5688 23.3901 46.5624C23.3657 33.8104 23.363 21.057 23.3928 8.30505C23.4037 3.47748 26.6223 0.0655771 31.0907 0.00091608C35.6107 -0.0651207 38.9609 3.44584 38.9827 8.35182C39.0111 14.767 38.9894 21.1809 38.9867 27.5961Z" fill="white"/>
</g>
<defs>
<clipPath id="clip0">
<rect width="39" height="55" fill="white"/>
</clipPath>
</defs>
</svg>
