<svg width="108" height="92" viewBox="0 0 108 92" fill="none" xmlns="http://www.w3.org/2000/svg">
<rect width="108" height="92" fill="black"/>
<path d="M59.1413 82V82.5H59.6413H69.7363H70.2363V82V70.3236H79H79.5V69.8236V60.7283V60.2283H79H70.2363V17V16.5H69.7363H56.5586H56.2806L56.1339 16.7361L28.5753 61.0793L28.5 61.2005V61.3432V69.8236V70.3236H29H59.1413V82ZM68.2518 67.8423H67.7518V68.3423V80.0187H61.6259V68.3423V67.8423H61.1259H30.9846V61.908L57.6628 18.9813H67.7518V62.2097V62.7097H68.2518H77.0154V67.8423H68.2518ZM61.1259 62.7097H61.6259V62.2097V24.2584V23.7584H61.1259H60.7696H60.4918L60.345 23.9944L36.7405 61.9456L36.2653 62.7097H37.1651H61.1259ZM59.1413 60.2283H40.7334L59.1413 30.6322V60.2283Z" fill="white" stroke="white"/>
</svg>
