<svg width="108" height="92" viewBox="0 0 108 92" fill="none" xmlns="http://www.w3.org/2000/svg">
<rect width="108" height="92" fill="black"/>
<mask id="path-2-outside-1" maskUnits="userSpaceOnUse" x="34" y="16" width="46" height="67" fill="black">
<rect fill="white" x="34" y="16" width="46" height="67"/>
<path fill-rule="evenodd" clip-rule="evenodd" d="M47.0549 79.7664L47.0444 79.7606C44.241 78.2071 41.9325 76.0022 40.1236 73.174C38.3197 70.3539 37.0263 66.9366 36.2113 62.9597C35.3996 58.9986 35 54.5085 35 49.5C35 44.5485 35.3996 40.0881 36.2109 36.1285C37.0252 32.0968 38.3179 28.649 40.1236 25.826C41.9332 22.9968 44.2448 20.8169 47.0549 19.3196C49.8881 17.7523 53.2207 17 57 17C60.7793 17 64.1119 17.7523 66.9451 19.3196C69.7552 20.8169 72.0668 22.9968 73.8764 25.826C75.6819 28.6487 76.9745 32.0959 77.7888 36.1269C78.6003 40.0869 79 44.5478 79 49.5C79 54.5085 78.6004 58.9986 77.7887 62.9597C76.9737 66.9366 75.6803 70.3539 73.8764 73.174C72.0675 76.0022 69.759 78.2071 66.9556 79.7606L66.9451 79.7664L66.9346 79.772C64.1039 81.2779 60.7755 82 57 82C53.2245 82 49.8961 81.2779 47.0654 79.772L47.0549 79.7664ZM66.2839 20.5856C63.6957 19.1514 60.601 18.4342 57 18.4342C53.399 18.4342 50.3043 19.1514 47.7161 20.5856C45.1279 21.9625 42.9898 23.9704 41.3018 26.6094C39.6138 29.2485 38.376 32.5185 37.5882 36.4197C36.8005 40.2635 36.4066 44.6236 36.4066 49.5C36.4066 54.4338 36.8005 58.8226 37.5882 62.6664C38.376 66.5101 39.6138 69.7515 41.3018 72.3906C42.9898 75.0296 45.1279 77.0662 47.7161 78.5004C50.3043 79.8773 53.399 80.5658 57 80.5658C60.601 80.5658 63.6957 79.8773 66.2839 78.5004C68.8721 77.0662 71.0102 75.0296 72.6982 72.3906C74.3862 69.7515 75.624 66.5101 76.4118 62.6664C77.1995 58.8226 77.5933 54.4338 77.5933 49.5C77.5933 44.6236 77.1995 40.2635 76.4118 36.4197C75.624 32.5185 74.3862 29.2485 72.6982 26.6094C71.0102 23.9704 68.8721 21.9625 66.2839 20.5856ZM65.9304 68.1095L65.9395 68.0949C66.9027 66.5442 67.6362 64.6453 68.1149 62.3692C68.5975 60.0171 68.844 57.3651 68.844 54.4051V44.5949C68.844 41.6929 68.5976 39.0681 68.1142 36.7135C67.6345 34.3763 66.8999 32.4513 65.9395 30.9051L65.9304 30.8905L65.9217 30.8756C65.0361 29.3706 63.8711 28.2366 62.4148 27.4447L62.3989 27.436L62.3832 27.427C60.9483 26.5979 59.1728 26.1505 57 26.1505C54.8272 26.1505 53.0517 26.5979 51.6168 27.427L51.6011 27.436L51.5852 27.4447C50.1264 28.238 48.9286 29.3767 47.9852 30.8905C47.075 32.4418 46.3663 34.3725 45.8858 36.7135C45.4024 39.0681 45.156 41.6929 45.156 44.5949V54.4051C45.156 57.3651 45.4025 60.0171 45.8851 62.3692C46.3646 64.6495 47.0724 66.554 47.9852 68.1095C48.9296 69.6251 50.1322 70.7979 51.6009 71.6499C53.0399 72.4285 54.8221 72.8495 57 72.8495C59.1779 72.8495 60.96 72.4285 62.3991 71.6499C63.8652 70.7992 65.0351 69.6311 65.9217 68.1244L65.9304 68.1095ZM63.0767 72.9069C61.3887 73.8248 59.3632 74.2838 57 74.2838C54.6368 74.2838 52.6113 73.8248 50.9233 72.9069C49.2353 71.9316 47.8568 70.5834 46.7877 68.8623C45.7749 67.1412 45.0153 65.0759 44.509 62.6664C44.0026 60.1995 43.7494 57.4457 43.7494 54.4051V44.5949C43.7494 41.6116 44.0026 38.8866 44.509 36.4197C45.0153 33.9528 45.7749 31.8588 46.7877 30.1377C47.8568 28.4166 49.2353 27.0971 50.9233 26.1792C52.6113 25.2039 54.6368 24.7162 57 24.7162C59.3632 24.7162 61.3887 25.2039 63.0767 26.1792C64.7647 27.0971 66.1151 28.4166 67.1279 30.1377C68.1969 31.8588 68.9847 33.9528 69.491 36.4197C69.9974 38.8866 70.2506 41.6116 70.2506 44.5949V54.4051C70.2506 57.4457 69.9974 60.1995 69.491 62.6664C68.9847 65.0759 68.1969 67.1412 67.1279 68.8623C66.1151 70.5834 64.7647 71.9316 63.0767 72.9069ZM51.8514 54.3679L51.8337 54.3484C50.8484 53.2666 50.3606 51.9373 50.3606 50.4466V48.5534C50.3606 47.0627 50.8484 45.7334 51.8337 44.6516L51.8514 44.6321L51.8698 44.6134C53.0625 43.3972 54.9214 42.9885 57 42.9885C59.0513 42.9885 60.9131 43.386 62.0633 44.6313C63.1063 45.7035 63.6394 47.0384 63.6394 48.5534V50.4466C63.6394 51.9616 63.1063 53.2965 62.0633 54.3687C60.9131 55.614 59.0513 56.0115 57 56.0115C54.9214 56.0115 53.0625 55.6027 51.8698 54.3866L51.8514 54.3679ZM61.0511 53.3725C61.8389 52.5693 62.2327 51.594 62.2327 50.4466V48.5534C62.2327 47.406 61.8389 46.4307 61.0511 45.6275C60.3197 44.8244 58.9693 44.4228 57 44.4228C55.0307 44.4228 53.6522 44.8244 52.8644 45.6275C52.133 46.4307 51.7673 47.406 51.7673 48.5534V50.4466C51.7673 51.594 52.133 52.5693 52.8644 53.3725C53.6522 54.1756 55.0307 54.5772 57 54.5772C58.9693 54.5772 60.3197 54.1756 61.0511 53.3725Z"/>
</mask>
<path fill-rule="evenodd" clip-rule="evenodd" d="M47.0549 79.7664L47.0444 79.7606C44.241 78.2071 41.9325 76.0022 40.1236 73.174C38.3197 70.3539 37.0263 66.9366 36.2113 62.9597C35.3996 58.9986 35 54.5085 35 49.5C35 44.5485 35.3996 40.0881 36.2109 36.1285C37.0252 32.0968 38.3179 28.649 40.1236 25.826C41.9332 22.9968 44.2448 20.8169 47.0549 19.3196C49.8881 17.7523 53.2207 17 57 17C60.7793 17 64.1119 17.7523 66.9451 19.3196C69.7552 20.8169 72.0668 22.9968 73.8764 25.826C75.6819 28.6487 76.9745 32.0959 77.7888 36.1269C78.6003 40.0869 79 44.5478 79 49.5C79 54.5085 78.6004 58.9986 77.7887 62.9597C76.9737 66.9366 75.6803 70.3539 73.8764 73.174C72.0675 76.0022 69.759 78.2071 66.9556 79.7606L66.9451 79.7664L66.9346 79.772C64.1039 81.2779 60.7755 82 57 82C53.2245 82 49.8961 81.2779 47.0654 79.772L47.0549 79.7664ZM66.2839 20.5856C63.6957 19.1514 60.601 18.4342 57 18.4342C53.399 18.4342 50.3043 19.1514 47.7161 20.5856C45.1279 21.9625 42.9898 23.9704 41.3018 26.6094C39.6138 29.2485 38.376 32.5185 37.5882 36.4197C36.8005 40.2635 36.4066 44.6236 36.4066 49.5C36.4066 54.4338 36.8005 58.8226 37.5882 62.6664C38.376 66.5101 39.6138 69.7515 41.3018 72.3906C42.9898 75.0296 45.1279 77.0662 47.7161 78.5004C50.3043 79.8773 53.399 80.5658 57 80.5658C60.601 80.5658 63.6957 79.8773 66.2839 78.5004C68.8721 77.0662 71.0102 75.0296 72.6982 72.3906C74.3862 69.7515 75.624 66.5101 76.4118 62.6664C77.1995 58.8226 77.5933 54.4338 77.5933 49.5C77.5933 44.6236 77.1995 40.2635 76.4118 36.4197C75.624 32.5185 74.3862 29.2485 72.6982 26.6094C71.0102 23.9704 68.8721 21.9625 66.2839 20.5856ZM65.9304 68.1095L65.9395 68.0949C66.9027 66.5442 67.6362 64.6453 68.1149 62.3692C68.5975 60.0171 68.844 57.3651 68.844 54.4051V44.5949C68.844 41.6929 68.5976 39.0681 68.1142 36.7135C67.6345 34.3763 66.8999 32.4513 65.9395 30.9051L65.9304 30.8905L65.9217 30.8756C65.0361 29.3706 63.8711 28.2366 62.4148 27.4447L62.3989 27.436L62.3832 27.427C60.9483 26.5979 59.1728 26.1505 57 26.1505C54.8272 26.1505 53.0517 26.5979 51.6168 27.427L51.6011 27.436L51.5852 27.4447C50.1264 28.238 48.9286 29.3767 47.9852 30.8905C47.075 32.4418 46.3663 34.3725 45.8858 36.7135C45.4024 39.0681 45.156 41.6929 45.156 44.5949V54.4051C45.156 57.3651 45.4025 60.0171 45.8851 62.3692C46.3646 64.6495 47.0724 66.554 47.9852 68.1095C48.9296 69.6251 50.1322 70.7979 51.6009 71.6499C53.0399 72.4285 54.8221 72.8495 57 72.8495C59.1779 72.8495 60.96 72.4285 62.3991 71.6499C63.8652 70.7992 65.0351 69.6311 65.9217 68.1244L65.9304 68.1095ZM63.0767 72.9069C61.3887 73.8248 59.3632 74.2838 57 74.2838C54.6368 74.2838 52.6113 73.8248 50.9233 72.9069C49.2353 71.9316 47.8568 70.5834 46.7877 68.8623C45.7749 67.1412 45.0153 65.0759 44.509 62.6664C44.0026 60.1995 43.7494 57.4457 43.7494 54.4051V44.5949C43.7494 41.6116 44.0026 38.8866 44.509 36.4197C45.0153 33.9528 45.7749 31.8588 46.7877 30.1377C47.8568 28.4166 49.2353 27.0971 50.9233 26.1792C52.6113 25.2039 54.6368 24.7162 57 24.7162C59.3632 24.7162 61.3887 25.2039 63.0767 26.1792C64.7647 27.0971 66.1151 28.4166 67.1279 30.1377C68.1969 31.8588 68.9847 33.9528 69.491 36.4197C69.9974 38.8866 70.2506 41.6116 70.2506 44.5949V54.4051C70.2506 57.4457 69.9974 60.1995 69.491 62.6664C68.9847 65.0759 68.1969 67.1412 67.1279 68.8623C66.1151 70.5834 64.7647 71.9316 63.0767 72.9069ZM51.8514 54.3679L51.8337 54.3484C50.8484 53.2666 50.3606 51.9373 50.3606 50.4466V48.5534C50.3606 47.0627 50.8484 45.7334 51.8337 44.6516L51.8514 44.6321L51.8698 44.6134C53.0625 43.3972 54.9214 42.9885 57 42.9885C59.0513 42.9885 60.9131 43.386 62.0633 44.6313C63.1063 45.7035 63.6394 47.0384 63.6394 48.5534V50.4466C63.6394 51.9616 63.1063 53.2965 62.0633 54.3687C60.9131 55.614 59.0513 56.0115 57 56.0115C54.9214 56.0115 53.0625 55.6027 51.8698 54.3866L51.8514 54.3679ZM61.0511 53.3725C61.8389 52.5693 62.2327 51.594 62.2327 50.4466V48.5534C62.2327 47.406 61.8389 46.4307 61.0511 45.6275C60.3197 44.8244 58.9693 44.4228 57 44.4228C55.0307 44.4228 53.6522 44.8244 52.8644 45.6275C52.133 46.4307 51.7673 47.406 51.7673 48.5534V50.4466C51.7673 51.594 52.133 52.5693 52.8644 53.3725C53.6522 54.1756 55.0307 54.5772 57 54.5772C58.9693 54.5772 60.3197 54.1756 61.0511 53.3725Z" fill="white"/>
<path fill-rule="evenodd" clip-rule="evenodd" d="M47.0549 79.7664L47.0444 79.7606C44.241 78.2071 41.9325 76.0022 40.1236 73.174C38.3197 70.3539 37.0263 66.9366 36.2113 62.9597C35.3996 58.9986 35 54.5085 35 49.5C35 44.5485 35.3996 40.0881 36.2109 36.1285C37.0252 32.0968 38.3179 28.649 40.1236 25.826C41.9332 22.9968 44.2448 20.8169 47.0549 19.3196C49.8881 17.7523 53.2207 17 57 17C60.7793 17 64.1119 17.7523 66.9451 19.3196C69.7552 20.8169 72.0668 22.9968 73.8764 25.826C75.6819 28.6487 76.9745 32.0959 77.7888 36.1269C78.6003 40.0869 79 44.5478 79 49.5C79 54.5085 78.6004 58.9986 77.7887 62.9597C76.9737 66.9366 75.6803 70.3539 73.8764 73.174C72.0675 76.0022 69.759 78.2071 66.9556 79.7606L66.9451 79.7664L66.9346 79.772C64.1039 81.2779 60.7755 82 57 82C53.2245 82 49.8961 81.2779 47.0654 79.772L47.0549 79.7664ZM66.2839 20.5856C63.6957 19.1514 60.601 18.4342 57 18.4342C53.399 18.4342 50.3043 19.1514 47.7161 20.5856C45.1279 21.9625 42.9898 23.9704 41.3018 26.6094C39.6138 29.2485 38.376 32.5185 37.5882 36.4197C36.8005 40.2635 36.4066 44.6236 36.4066 49.5C36.4066 54.4338 36.8005 58.8226 37.5882 62.6664C38.376 66.5101 39.6138 69.7515 41.3018 72.3906C42.9898 75.0296 45.1279 77.0662 47.7161 78.5004C50.3043 79.8773 53.399 80.5658 57 80.5658C60.601 80.5658 63.6957 79.8773 66.2839 78.5004C68.8721 77.0662 71.0102 75.0296 72.6982 72.3906C74.3862 69.7515 75.624 66.5101 76.4118 62.6664C77.1995 58.8226 77.5933 54.4338 77.5933 49.5C77.5933 44.6236 77.1995 40.2635 76.4118 36.4197C75.624 32.5185 74.3862 29.2485 72.6982 26.6094C71.0102 23.9704 68.8721 21.9625 66.2839 20.5856ZM65.9304 68.1095L65.9395 68.0949C66.9027 66.5442 67.6362 64.6453 68.1149 62.3692C68.5975 60.0171 68.844 57.3651 68.844 54.4051V44.5949C68.844 41.6929 68.5976 39.0681 68.1142 36.7135C67.6345 34.3763 66.8999 32.4513 65.9395 30.9051L65.9304 30.8905L65.9217 30.8756C65.0361 29.3706 63.8711 28.2366 62.4148 27.4447L62.3989 27.436L62.3832 27.427C60.9483 26.5979 59.1728 26.1505 57 26.1505C54.8272 26.1505 53.0517 26.5979 51.6168 27.427L51.6011 27.436L51.5852 27.4447C50.1264 28.238 48.9286 29.3767 47.9852 30.8905C47.075 32.4418 46.3663 34.3725 45.8858 36.7135C45.4024 39.0681 45.156 41.6929 45.156 44.5949V54.4051C45.156 57.3651 45.4025 60.0171 45.8851 62.3692C46.3646 64.6495 47.0724 66.554 47.9852 68.1095C48.9296 69.6251 50.1322 70.7979 51.6009 71.6499C53.0399 72.4285 54.8221 72.8495 57 72.8495C59.1779 72.8495 60.96 72.4285 62.3991 71.6499C63.8652 70.7992 65.0351 69.6311 65.9217 68.1244L65.9304 68.1095ZM63.0767 72.9069C61.3887 73.8248 59.3632 74.2838 57 74.2838C54.6368 74.2838 52.6113 73.8248 50.9233 72.9069C49.2353 71.9316 47.8568 70.5834 46.7877 68.8623C45.7749 67.1412 45.0153 65.0759 44.509 62.6664C44.0026 60.1995 43.7494 57.4457 43.7494 54.4051V44.5949C43.7494 41.6116 44.0026 38.8866 44.509 36.4197C45.0153 33.9528 45.7749 31.8588 46.7877 30.1377C47.8568 28.4166 49.2353 27.0971 50.9233 26.1792C52.6113 25.2039 54.6368 24.7162 57 24.7162C59.3632 24.7162 61.3887 25.2039 63.0767 26.1792C64.7647 27.0971 66.1151 28.4166 67.1279 30.1377C68.1969 31.8588 68.9847 33.9528 69.491 36.4197C69.9974 38.8866 70.2506 41.6116 70.2506 44.5949V54.4051C70.2506 57.4457 69.9974 60.1995 69.491 62.6664C68.9847 65.0759 68.1969 67.1412 67.1279 68.8623C66.1151 70.5834 64.7647 71.9316 63.0767 72.9069ZM51.8514 54.3679L51.8337 54.3484C50.8484 53.2666 50.3606 51.9373 50.3606 50.4466V48.5534C50.3606 47.0627 50.8484 45.7334 51.8337 44.6516L51.8514 44.6321L51.8698 44.6134C53.0625 43.3972 54.9214 42.9885 57 42.9885C59.0513 42.9885 60.9131 43.386 62.0633 44.6313C63.1063 45.7035 63.6394 47.0384 63.6394 48.5534V50.4466C63.6394 51.9616 63.1063 53.2965 62.0633 54.3687C60.9131 55.614 59.0513 56.0115 57 56.0115C54.9214 56.0115 53.0625 55.6027 51.8698 54.3866L51.8514 54.3679ZM61.0511 53.3725C61.8389 52.5693 62.2327 51.594 62.2327 50.4466V48.5534C62.2327 47.406 61.8389 46.4307 61.0511 45.6275C60.3197 44.8244 58.9693 44.4228 57 44.4228C55.0307 44.4228 53.6522 44.8244 52.8644 45.6275C52.133 46.4307 51.7673 47.406 51.7673 48.5534V50.4466C51.7673 51.594 52.133 52.5693 52.8644 53.3725C53.6522 54.1756 55.0307 54.5772 57 54.5772C58.9693 54.5772 60.3197 54.1756 61.0511 53.3725Z" stroke="white" stroke-width="2" mask="url(#path-2-outside-1)"/>
</svg>
